:SAMPLES-PER-SECOND 30
:FULLY-SPECIFIED
:DEGREES
639
root  4.83429 34.5193 2.67988 -77.0308 -81.8955 64.4529
RightUpLeg  -8.09997 -10.4689 -40.6248
RightLeg  24.3723 5.92669 2.72237
RightFoot  4.06094 -4.30965 31.3571
RightToes  -2.32832e-010 0 -3.6325e-017
Spine  26.9854 5.21457 13.7554
Spine1  2.93006 8.18327 -0.401033
HEad  -20.925 -23.7268 -21.8029
LeftShoulder1  1.6614 -4.1826 -14.7574
LeftArm  22.7151 43.4338 -58.7165
LeftForeArm  39.6778 -56.0407 -13.2693
LeftHand  -1.93357 -4.28906 23.194
RightShoulder  0.432689 -0.558317 7.12226
RightArm  -34.491 32.9535 43.5631
RightForeArm  168.098 54.7973 165.645
RightHand  -0.129612 -3.84819 -8.6695
LeftUpLeg  -7.44296 10.2601 17.8257
LeftLeg  43.0425 -6.10059 -5.66758
LeftFoot  -17.9366 -1.46473 -26.8244
LeftToes  2.2737e-010 4.38529e-011 2.18788e-011
640
root  4.99908 34.7418 3.48237 -92.7827 -77.6797 82.0822
RightUpLeg  -9.68343 -8.79866 -45.4066
RightLeg  19.0361 4.33445 1.47757
RightFoot  8.35693 -5.34105 30.4437
RightToes  -2.32832e-010 0 -3.6325e-017
Spine  26.9528 5.48672 15.4328
Spine1  1.30357 10.4028 -8.5261
HEad  -17.0435 -25.8212 -22.1455
LeftShoulder1  1.51466 -3.81827 -13.7205
LeftArm  23.4957 44.1827 -53.4504
LeftForeArm  36.5133 -58.4382 -15.0478
LeftHand  -1.79807 -4.80429 20.579
RightShoulder  0.271594 -1.18601 3.73144
RightArm  -38.3014 34.8592 42.5924
RightForeArm  166.896 56.6518 164.568
RightHand  -0.128111 -3.84841 -8.54475
LeftUpLeg  -7.65557 13.5857 11.2448
LeftLeg  41.5881 -5.40403 -4.71166
LeftFoot  -17.7397 -1.36525 -25.9085
LeftToes  2.2737e-010 4.38529e-011 2.18788e-011
641
root  5.1217 34.7218 4.14541 -97.299 -74.6396 90.6722
RightUpLeg  -13.5154 -6.46357 -48.3878
RightLeg  15.5903 0.467528 -0.0630791
RightFoot  11.4056 -5.99721 29.5897
RightToes  -2.32832e-010 0 -3.6325e-017
Spine  25.8636 6.09298 18.3148
Spine1  -1.7022 12.7687 -16.7952
HEad  -12.8511 -28.076 -22.0652
LeftShoulder1  1.16795 -2.53728 -12.2136
LeftArm  24.4717 43.5639 -47.2426
LeftForeArm  36.8151 -60.8595 -16.7886
LeftHand  -1.44631 -6.04678 14.9526
RightShoulder  0.168042 -1.65419 0.807451
RightArm  -41.5053 33.0205 40.9581
RightForeArm  166.33 58.3132 163.554
RightHand  -0.0862415 -4.40368 -7.95062
LeftUpLeg  -11.8302 15.3291 5.7561
LeftLeg  42.0184 -4.09728 -3.52489
LeftFoot  -18.4093 -1.48601 -25.449
LeftToes  2.2737e-010 4.38529e-011 2.18788e-011
642
root  5.22267 34.4915 4.5947 -95.0166 -73.5204 92.7412
RightUpLeg  -16.713 -5.31616 -50.0286
RightLeg  13.7655 -3.13825 -1.34213
RightFoot  12.6989 -6.57102 30.6072
RightToes  -2.32832e-010 0 -3.6325e-017
Spine  24.376 6.46231 21.4651
Spine1  -4.90062 14.0949 -23.5842
HEad  -10.0442 -30.0676 -21.3299
LeftShoulder1  0.780011 -0.800626 -10.8986
LeftArm  23.5681 41.7664 -41.2962
LeftForeArm  40.0041 -63.6029 -18.8406
LeftHand  -0.915985 -7.50715 8.57478
RightShoulder  0.161901 -1.53386 -0.280558
RightArm  -43.7128 28.1541 37.7056
RightForeArm  165.706 60.2719 162.236
RightHand  -0.027728 -5.31911 -6.35266
LeftUpLeg  -17.9468 14.6522 2.37032
LeftLeg  44.26 -2.73091 -2.41439
LeftFoot  -19.5457 -1.70489 -25.0267
LeftToes  2.2737e-010 4.38529e-011 2.18788e-011
643
root  5.37325 34.1449 4.83365 -89.9689 -73.5481 90.1494
RightUpLeg  -17.8655 -7.14239 -50.6858
RightLeg  13.1486 -3.22324 -1.73081
RightFoot  12.5021 -7.14999 33.4126
RightToes  -2.32832e-010 0 -3.6325e-017
Spine  23.8283 6.23873 23.5754
Spine1  -7.22336 14.2248 -28.0731
HEad  -9.46263 -31.6102 -19.8732
LeftShoulder1  0.495027 0.709743 -10.4643
LeftArm  20.0637 39.0515 -35.7906
LeftForeArm  42.7884 -66.6083 -21.7918
LeftHand  -0.442853 -8.02545 4.18741
RightShoulder  0.229722 -1.0057 0.826336
RightArm  -44.0553 21.3161 33.1956
RightForeArm  164.615 62.7436 160.316
RightHand  -0.00601805 -5.88264 -4.77579
LeftUpLeg  -22.7027 12.5171 1.12024
LeftLeg  47.1251 -1.77044 -1.59464
LeftFoot  -20.5844 -1.90451 -24.7192
LeftToes  2.2737e-010 4.38529e-011 2.18788e-011
644
root  5.59644 33.7942 4.86965 -88.322 -73.1422 88.7882
RightUpLeg  -18.7753 -9.81997 -51.641
RightLeg  14.3843 -0.794972 -0.649751
RightFoot  11.5752 -7.32255 35.4608
RightToes  -2.32832e-010 0 -3.6325e-017
Spine  24.7606 5.80519 23.388
Spine1  -8.03344 14.0677 -30.734
HEad  -11.1978 -32.587 -17.5173
LeftShoulder1  0.320051 1.73316 -10.8242
LeftArm  14.1192 35.6871 -31.3556
LeftForeArm  43.8507 -69.3606 -25.6315
LeftHand  -0.262399 -7.27175 2.77832
RightShoulder  0.322004 -0.605751 3.07224
RightArm  -41.7979 13.6631 29.3329
RightForeArm  162.842 65.6737 157.546
RightHand  -0.00502649 -5.97287 -4.56263
LeftUpLeg  -24.5924 11.1395 0.562793
LeftLeg  49.2309 -1.27674 -1.12022
LeftFoot  -21.2426 -2.05295 -24.8017
LeftToes  2.2737e-010 4.38529e-011 2.18788e-011
